<mxfile host="Electron" agent="Mozilla/5.0 (Macintosh; Intel Mac OS X 10_15_7) AppleWebKit/537.36 (KHTML, like Gecko) draw.io/27.0.2 Chrome/134.0.6998.205 Electron/35.3.0 Safari/537.36" version="27.0.2">
  <diagram id="C5RBs43oDa-KdzZeNtuy" name="Page-1">
    <mxGraphModel dx="702" dy="536" grid="1" gridSize="10" guides="1" tooltips="1" connect="1" arrows="1" fold="1" page="1" pageScale="1" pageWidth="827" pageHeight="1169" math="0" shadow="0">
      <root>
        <mxCell id="WIyWlLk6GJQsqaUBKTNV-0" />
        <mxCell id="WIyWlLk6GJQsqaUBKTNV-1" parent="WIyWlLk6GJQsqaUBKTNV-0" />
        <mxCell id="AssbHnAkda9GRXsxMU0L-6" style="edgeStyle=orthogonalEdgeStyle;rounded=0;orthogonalLoop=1;jettySize=auto;html=1;entryX=0.5;entryY=0;entryDx=0;entryDy=0;" edge="1" parent="WIyWlLk6GJQsqaUBKTNV-1" source="AssbHnAkda9GRXsxMU0L-0" target="AssbHnAkda9GRXsxMU0L-5">
          <mxGeometry relative="1" as="geometry" />
        </mxCell>
        <mxCell id="AssbHnAkda9GRXsxMU0L-0" value="" style="ellipse;" vertex="1" parent="WIyWlLk6GJQsqaUBKTNV-1">
          <mxGeometry x="340" y="800" width="30" height="30" as="geometry" />
        </mxCell>
        <mxCell id="AssbHnAkda9GRXsxMU0L-22" style="edgeStyle=orthogonalEdgeStyle;rounded=0;orthogonalLoop=1;jettySize=auto;html=1;" edge="1" parent="WIyWlLk6GJQsqaUBKTNV-1" source="AssbHnAkda9GRXsxMU0L-5" target="AssbHnAkda9GRXsxMU0L-8">
          <mxGeometry relative="1" as="geometry" />
        </mxCell>
        <mxCell id="AssbHnAkda9GRXsxMU0L-5" value="Device Gets Stolen" style="rounded=0;whiteSpace=wrap;html=1;" vertex="1" parent="WIyWlLk6GJQsqaUBKTNV-1">
          <mxGeometry x="297.5" y="850" width="115" height="30" as="geometry" />
        </mxCell>
        <mxCell id="AssbHnAkda9GRXsxMU0L-8" value="Slave Wemos Gets Disconnected from Master Wemos&amp;nbsp;" style="rounded=0;whiteSpace=wrap;html=1;" vertex="1" parent="WIyWlLk6GJQsqaUBKTNV-1">
          <mxGeometry x="299" y="900" width="112" height="50" as="geometry" />
        </mxCell>
        <mxCell id="AssbHnAkda9GRXsxMU0L-14" style="edgeStyle=orthogonalEdgeStyle;rounded=0;orthogonalLoop=1;jettySize=auto;html=1;entryX=0.5;entryY=0;entryDx=0;entryDy=0;" edge="1" parent="WIyWlLk6GJQsqaUBKTNV-1" source="AssbHnAkda9GRXsxMU0L-11" target="AssbHnAkda9GRXsxMU0L-13">
          <mxGeometry relative="1" as="geometry" />
        </mxCell>
        <mxCell id="AssbHnAkda9GRXsxMU0L-11" value="Slave Wemos Executes Protocol for Theft" style="rounded=0;whiteSpace=wrap;html=1;" vertex="1" parent="WIyWlLk6GJQsqaUBKTNV-1">
          <mxGeometry x="297.5" y="970" width="112" height="50" as="geometry" />
        </mxCell>
        <mxCell id="AssbHnAkda9GRXsxMU0L-12" style="edgeStyle=orthogonalEdgeStyle;rounded=0;orthogonalLoop=1;jettySize=auto;html=1;entryX=0.502;entryY=0.063;entryDx=0;entryDy=0;entryPerimeter=0;" edge="1" parent="WIyWlLk6GJQsqaUBKTNV-1" source="AssbHnAkda9GRXsxMU0L-8" target="AssbHnAkda9GRXsxMU0L-11">
          <mxGeometry relative="1" as="geometry" />
        </mxCell>
        <mxCell id="AssbHnAkda9GRXsxMU0L-20" style="edgeStyle=orthogonalEdgeStyle;rounded=0;orthogonalLoop=1;jettySize=auto;html=1;entryX=0.5;entryY=0;entryDx=0;entryDy=0;" edge="1" parent="WIyWlLk6GJQsqaUBKTNV-1" source="AssbHnAkda9GRXsxMU0L-13" target="AssbHnAkda9GRXsxMU0L-19">
          <mxGeometry relative="1" as="geometry" />
        </mxCell>
        <mxCell id="AssbHnAkda9GRXsxMU0L-13" value="Slave Wemos Informs A9G to Send SMS with Geolocation Details of Device" style="rounded=0;whiteSpace=wrap;html=1;" vertex="1" parent="WIyWlLk6GJQsqaUBKTNV-1">
          <mxGeometry x="297.5" y="1040" width="112" height="80" as="geometry" />
        </mxCell>
        <mxCell id="AssbHnAkda9GRXsxMU0L-17" value="" style="ellipse;" vertex="1" parent="WIyWlLk6GJQsqaUBKTNV-1">
          <mxGeometry x="338.5" y="1220" width="30" height="30" as="geometry" />
        </mxCell>
        <mxCell id="AssbHnAkda9GRXsxMU0L-21" style="edgeStyle=orthogonalEdgeStyle;rounded=0;orthogonalLoop=1;jettySize=auto;html=1;entryX=0.5;entryY=0;entryDx=0;entryDy=0;" edge="1" parent="WIyWlLk6GJQsqaUBKTNV-1" source="AssbHnAkda9GRXsxMU0L-19" target="AssbHnAkda9GRXsxMU0L-17">
          <mxGeometry relative="1" as="geometry" />
        </mxCell>
        <mxCell id="AssbHnAkda9GRXsxMU0L-19" value="A9G Sends SMS Message to Owner&#39;s Phone" style="rounded=0;whiteSpace=wrap;html=1;" vertex="1" parent="WIyWlLk6GJQsqaUBKTNV-1">
          <mxGeometry x="297.5" y="1140" width="112" height="60" as="geometry" />
        </mxCell>
      </root>
    </mxGraphModel>
  </diagram>
</mxfile>
